<?xml version="1.0" encoding="UTF-8"?>
<svg width="33px" height="33px" viewBox="0 0 33 33" version="1.1" xmlns="http://www.w3.org/2000/svg" xmlns:xlink="http://www.w3.org/1999/xlink">
    <!-- Generator: Sketch 53 (72520) - https://sketchapp.com -->
    <title>icon-add-items</title>
    <desc>Created with Sketch.</desc>
    <defs>
        <polygon id="path-1" points="0 0.959558824 28 0.959558824 28 28.9238445 0 28.9238445"></polygon>
    </defs>
    <g id="icon-add-items" stroke="none" stroke-width="1" fill="none" fill-rule="evenodd">
        <g transform="translate(3.000000, 2.000000)">
            <mask id="mask-2" fill="white">
                <use xlink:href="#path-1"></use>
            </mask>
            <g id="Clip-2"></g>
            <path d="M14,0.959558824 C12.3812751,0.959558824 11.0537455,2.28542969 11.0537455,3.90213204 L11.0537455,11.9994929 L2.9462545,11.9994929 C1.3282594,11.9994929 0,13.3253638 0,14.9420661 C0,16.5558529 1.32679977,17.8846393 2.9462545,17.8846393 L11.0537455,17.8846393 L11.0537455,25.9812713 C11.0537455,27.595787 12.3805453,28.9238445 14,28.9238445 C15.6172653,28.9238445 16.9462545,27.5965159 16.9462545,25.9812713 L16.9462545,17.8846393 L25.0537455,17.8846393 C26.670281,17.8846393 28,16.5565818 28,14.9420661 C28,13.3246349 26.6695512,11.9994929 25.0537455,11.9994929 L16.9462545,11.9994929 L16.9462545,3.90213204 C16.9462545,2.28397189 15.6165355,0.959558824 14,0.959558824" id="Fill-1" fill="#9B9898" mask="url(#mask-2)"></path>
        </g>
    </g>
</svg>