<?xml version="1.0" encoding="UTF-8"?>
<svg width="112px" height="100px" viewBox="0 0 112 100" version="1.1" xmlns="http://www.w3.org/2000/svg" xmlns:xlink="http://www.w3.org/1999/xlink">
    <!-- Generator: Sketch 53 (72520) - https://sketchapp.com -->
    <title>icon-camera</title>
    <desc>Created with Sketch.</desc>
    <defs>
        <polygon id="path-1" points="0 0.236024845 111.647107 0.236024845 111.647107 99.1304348 0 99.1304348"></polygon>
    </defs>
    <g id="Symbols" stroke="none" stroke-width="1" fill="none" fill-rule="evenodd" opacity="0.120907738">
        <g id="icon-camera" transform="translate(-2.000000, -2.000000)">
            <g transform="translate(2.000000, 2.000000)">
                <path d="M44.2280384,31.3043478 C37.6991423,31.3043478 32.452708,36.5346535 32.452708,43.0434783 C32.452708,49.5523031 37.6991423,54.7826087 44.2280384,54.7826087 C50.7569344,54.7826087 56.0033687,49.5523031 56.0033687,43.0434783 C56.0033687,36.6508825 50.7569344,31.3043478 44.2280384,31.3043478" id="Fill-1" fill="#000000"></path>
                <g id="Group-5" transform="translate(0.179580, 0.000000)">
                    <mask id="mask-2" fill="white">
                        <use xlink:href="#path-1"></use>
                    </mask>
                    <g id="Clip-4"></g>
                    <path d="M88.8474965,92.8753043 C79.6806428,92.8753043 72.1602971,85.3236894 72.1602971,76.1187205 C72.1602971,66.9125714 79.6806428,59.3609565 88.8474965,59.3609565 C98.0155255,59.3609565 105.535871,66.9125714 105.535871,76.1187205 C105.535871,85.3236894 98.0155255,92.8753043 88.8474965,92.8753043 M44.4235132,63.1361739 C33.3762793,63.1361739 24.3281246,54.1672298 24.3281246,42.9560497 C24.3281246,31.862882 33.2587555,22.7771056 44.4235132,22.7771056 C55.4719224,22.7771056 64.5212523,31.7448696 64.5212523,42.9560497 C64.5212523,54.1672298 55.4719224,63.1361739 44.4235132,63.1361739 M88.8474965,53.2231304 L88.8474965,22.8939379 C88.8474965,16.8764845 84.0290221,11.9187826 77.9177863,11.9187826 L64.1675058,11.9187826 L60.054174,3.4218882 C59.1139839,1.53486957 57.1160799,0.235552795 55.0006521,0.235552795 L33.9638981,0.235552795 C31.8484703,0.235552795 29.8505663,1.41567702 28.9103762,3.4218882 L24.6795206,11.9187826 L10.9292401,11.9187826 C4.93670329,11.9187826 -0.000470095061,16.8764845 -0.000470095061,22.8939379 L-0.000470095061,65.2615776 C-0.000470095061,71.2790311 4.81800428,76.2355528 10.9292401,76.2355528 L66.0490613,76.2355528 C66.0490613,88.8640621 76.2736289,99.1311429 88.8474965,99.1311429 C101.422539,99.1311429 111.647107,88.8640621 111.647107,76.2355528 C111.647107,63.6082236 101.422539,53.2231304 88.8474965,53.2231304" id="Fill-3" fill="#000000" mask="url(#mask-2)"></path>
                </g>
                <path d="M91.6494847,66.0259142 C90.4475922,64.9478837 88.5245641,64.9478837 87.3226715,66.0259142 L81.433398,71.5370458 C80.1113162,72.7348575 80.1113162,74.6501584 81.3132088,75.9677512 C82.5151013,77.2853441 84.4381294,77.2853441 85.7614131,76.0875324 L86.4813467,75.4886265 L86.4813467,84.7129744 C86.4813467,86.3887129 87.9236178,87.826087 89.6062674,87.826087 C91.288917,87.826087 92.731188,86.3887129 92.731188,84.7129744 L92.731188,75.4886265 L93.4523236,76.0875324 C94.0532698,76.6864382 94.7756073,76.9271984 95.6157302,76.9271984 C96.4570549,76.9271984 97.2983797,76.5666571 97.899326,75.9677512 C99.1012186,74.6501584 98.9822312,72.7348575 97.7803386,71.5370458 L91.6494847,66.0259142 Z" id="Fill-6" fill="#000000"></path>
            </g>
        </g>
    </g>
</svg>