<?xml version="1.0" encoding="UTF-8"?>
<svg width="22px" height="32px" viewBox="0 0 22 32" version="1.1" xmlns="http://www.w3.org/2000/svg" xmlns:xlink="http://www.w3.org/1999/xlink">
    <!-- Generator: Sketch 53 (72520) - https://sketchapp.com -->
    <title>icon-delete</title>
    <desc>Created with Sketch.</desc>
    <defs>
        <polygon id="path-1" points="0.000144 0.09525 17.887104 0.09525 17.887104 5.84895 0.000144 5.84895"></polygon>
    </defs>
    <g id="icon-delete" stroke="none" stroke-width="1" fill="none" fill-rule="evenodd">
        <g transform="translate(2.000000, 2.000000)">
            <path d="M10.8,11.8120509 L10.8,11.8120509 C11.1511316,11.8120509 11.415021,12.0743174 11.415021,12.4249641 L11.415021,22.4873743 C11.415021,22.8380209 11.1511316,23.1002874 10.8,23.1002874 C10.4488684,23.1002874 10.184979,22.8380209 10.184979,22.4873743 L10.184979,12.4249641 C10.184979,12.0743174 10.4488684,11.8120509 10.8,11.8120509 L10.8,11.8120509 Z M7.11203685,11.8120509 L7.11203685,11.8120509 C7.46316844,11.8120509 7.72633687,12.0743174 7.72633687,12.4249641 L7.72633687,22.4873743 C7.72633687,22.8380209 7.46316844,23.1002874 7.11203685,23.1002874 C6.76090527,23.1002874 6.49773683,22.8380209 6.49773683,22.4873743 L6.49773683,12.4249641 C6.49773683,12.0743174 6.76090527,11.8120509 7.11203685,11.8120509 L7.11203685,11.8120509 Z M4.74207891,28 L13.170679,28 C14.6631684,28 15.8924895,26.5126257 16.1563789,24.5 L18,7.1746048 L18,7 L0,7 L0,7.1746048 L1.84362107,24.5 C2.01954737,26.5126257 3.33611055,28 4.82932105,28 L4.74207891,28 Z" id="Fill-1" fill="#9B9898"></path>
            <g id="Group-5">
                <mask id="mask-2" fill="white">
                    <use xlink:href="#path-1"></use>
                </mask>
                <g id="Clip-4"></g>
                <path d="M0.087984,5.84895 L17.887104,5.84895 L17.887104,3.6567 L13.415184,3.6567 L13.415184,0.09495 L4.472064,0.09495 L4.472064,3.6567 L0.000144,3.6567 L0.000144,5.84895 L0.087984,5.84895 Z M6.751584,3.56595 L11.223504,3.56595 L11.223504,2.46945 L6.751584,2.46945 L6.751584,3.56595 Z" id="Fill-3" fill="#9B9898" mask="url(#mask-2)"></path>
            </g>
        </g>
    </g>
</svg>